<svg width="700" height="700" viewBox="0 0 700 700" fill="none" xmlns="http://www.w3.org/2000/svg">
<rect width="700" height="700" fill="#D9D9D9"/>
<path d="M700 700H0.000244141V0.000366211H700V700ZM587.571 76.4301C578.945 67.8047 566.297 64.5801 554.595 68.0219L54.595 215.08C41.3137 218.987 31.8294 230.696 30.7659 244.498C29.7025 258.301 37.2808 271.325 49.8069 277.22L270.821 381.226L387.1 614.853C393.209 627.127 406.21 634.409 419.867 633.205C433.524 632.002 445.052 622.558 448.92 609.406L595.979 109.406C599.421 97.7033 596.196 85.0554 587.571 76.4301ZM408.932 509.098L330.267 351.044L454.603 208.062L297.966 320.321L157.611 254.272L514.778 149.222L408.932 509.098Z" fill="black"/>
</svg>
