<svg width="700" height="700" viewBox="0 0 700 700" fill="none" xmlns="http://www.w3.org/2000/svg">
<path d="M700 700H0V0H700V700ZM587.57 76.4297C578.945 67.8043 566.297 64.5797 554.595 68.0215L54.5947 215.08C41.3134 218.986 31.8292 230.695 30.7656 244.498C29.7021 258.301 37.2804 271.325 49.8066 277.22L270.82 381.226L387.1 614.853C393.208 627.126 406.21 634.408 419.867 633.205C433.524 632.002 445.051 622.558 448.92 609.405L595.979 109.405C599.42 97.7028 596.196 85.055 587.57 76.4297ZM408.932 509.098L326.498 343.471L327.479 344.452L397.783 258.839L313.57 327.992C312.528 327.319 311.446 326.701 310.326 326.146L309.693 325.84L157.61 254.271L514.777 149.222L408.932 509.098Z" fill="black"/>
</svg>
