<svg width="1000" height="1000" viewBox="0 0 1000 1000" fill="none" xmlns="http://www.w3.org/2000/svg">
<path d="M1000 1000H0V0H1000V1000ZM558 428.316C557.467 428.317 556.667 430.85 556.267 433.917C555.6 438.717 556.134 441.25 560.134 449.25C568.534 466.317 577.6 496.05 582.533 522.717C589.2 558.317 591.066 617.383 586.8 660.983C580 728.983 561.466 807.517 533.6 884.717L525.6 906.983L529.6 912.05C535.066 918.85 556.4 946.583 567.066 960.717L576 972.45L579.733 960.717C601.6 891.783 613.467 844.583 622.533 790.316C637.733 699.383 638.534 608.85 624.667 540.983C618.4 510.45 607.2 475.783 594.667 448.983L589.066 436.851L579.867 435.117C574.801 434.184 568 432.317 564.8 430.851C561.6 429.517 558.533 428.316 558 428.316ZM406.267 351.25C405.333 348.317 405.066 348.317 393.333 355.384C316.133 400.984 259.333 455.384 249.333 493.117C245.067 509.25 250.533 522.451 264.267 529.117C271.467 532.717 273.067 532.984 286.667 532.851C299.733 532.851 302.534 532.317 312.533 528.584C362.133 509.917 399.067 455.383 406 390.717C407.467 376.583 407.6 356.183 406.267 351.25ZM461.733 340.317C461.067 340.317 456.133 347.117 450.8 355.25C426.4 392.85 410.4 428.184 405.866 454.45C403.6 467.65 404.8 487.65 408.4 494.45C415.6 508.317 428.933 514.45 449.866 513.25C473.066 512.05 493.867 502.051 512.667 483.117C535.2 460.584 541.333 438.45 532.533 412.05C524.533 387.917 503.2 364.584 472.134 345.917C466.934 342.85 462.267 340.318 461.733 340.317ZM367.467 331.917C369.067 329.25 369.2 329.25 350.934 331.65C271.734 342.45 198.667 370.983 166.533 403.517C141.2 429.25 140.534 456.183 164.934 466.983C206.667 485.383 284.667 436.984 354.134 349.384C360.8 341.117 366.8 333.251 367.467 331.917ZM687.467 331.783C675.2 306.45 627.867 294.583 564.667 300.983C540.267 303.383 516.133 306.984 514.8 308.317C511.734 311.387 520.4 350.184 528 366.45C547.067 407.784 581.2 426.184 620.134 416.317C647.867 409.117 674.133 389.384 685.066 367.117C690.8 355.384 691.733 340.85 687.467 331.783ZM292.934 260.184C276.134 256.584 239.2 255.517 225.066 258.184C190.667 264.717 159.467 285.65 148.134 309.65C144.8 316.584 144 320.05 144 327.25C144 334.983 144.533 336.85 148 341.917C156.667 354.05 175.6 359.383 200.533 356.45C239.067 351.917 288.134 333.784 343.2 303.384L366.4 290.583L361.2 287.384C342.667 276.184 314.267 264.85 292.934 260.184ZM513.333 217.517C505.199 213.783 481.733 212.717 470 215.517C435.067 223.65 402.533 245.117 384.533 272.05C370.133 293.65 369.067 312.984 381.467 326.851C407.2 355.517 474.533 340.45 515.066 296.983C530.133 280.85 539.6 258.983 537.467 245.25C535.467 232.717 527.866 223.917 513.333 217.517ZM736 182.184C728.667 181.917 721.467 182.05 720 182.45C718.533 182.85 712.534 184.051 706.667 185.117C686.8 188.851 653.734 201.117 626.667 214.584C602.267 226.85 546.002 260.583 546 262.983C546 264.45 563.067 271.917 578 276.851C637.733 296.717 698.534 292.45 738.134 265.517C763.734 248.183 778.8 222.45 774 204.45C772 196.984 764.8 189.25 756.267 185.65C750.933 183.25 746.267 182.45 736 182.184ZM364 159.517C344.267 139.383 323.333 133.383 297.2 140.316C274.267 146.316 253.467 161.384 240.934 180.851C235.734 188.984 233.733 195.917 233.733 205.117C233.867 227.917 260.933 244.184 307.6 249.65C329.466 252.184 394.131 249.917 397.6 246.45C399.066 244.984 393.733 215.25 389.866 203.65C383.333 184.184 376.133 171.783 364 159.517ZM721.333 71.5166C714 71.25 706.8 71.5165 705.333 71.7832C660.933 82.9833 612.933 121.784 565.333 185.117C552.4 202.316 540.001 221.382 541.066 222.45C541.466 222.85 549.867 221.65 559.733 219.783C647.733 202.717 729.733 159.517 749.333 119.917C759.466 99.2505 756.267 82.9835 740.134 74.7168C735.734 72.3168 732 71.7833 721.333 71.5166ZM476.667 51.917C470 48.8503 454.133 47.7837 445.333 49.6504C427.866 53.3838 409.067 63.784 395.867 76.8506C371.201 101.517 368.4 130.183 387.467 162.717C396.267 177.517 420.666 199.517 440.8 210.851L448.4 215.117L454.533 205.384C463.333 191.65 480.8 156.717 486.533 141.25C504 94.4502 500.4 62.5838 476.667 51.917ZM640.8 37.917C634.4 25.3837 617.733 19.5167 598 22.9834C583.067 25.6501 567.2 33.2501 552.8 44.7168C526.133 65.9168 506.134 106.45 500.667 150.184C498.934 163.117 499.467 203.516 501.2 205.25C503.067 207.117 547.334 174.85 572.4 153.384C588.534 139.651 611.999 114.584 621.866 100.851C626.533 94.3173 633.067 83.384 636.4 76.584C641.6 65.9173 642.533 62.7165 643.066 53.7832C643.6 45.1168 643.2 42.5836 640.8 37.917Z" fill="black"/>
</svg>
