<?xml version="1.0" standalone="no"?>
<!DOCTYPE svg PUBLIC "-//W3C//DTD SVG 20010904//EN"
 "http://www.w3.org/TR/2001/REC-SVG-20010904/DTD/svg10.dtd">
<svg version="1.0" xmlns="http://www.w3.org/2000/svg"
 width="1024.000000pt" height="1024.000000pt" viewBox="0 0 1024.000000 1024.000000"
 preserveAspectRatio="xMidYMid meet">

<g transform="translate(0.000000,1024.000000) scale(0.100000,-0.100000)"
fill="#000000" stroke="none">
<path d="M6110 8650 c-112 -20 -231 -77 -339 -163 -200 -159 -350 -463 -391
-791 -13 -97 -9 -400 4 -413 14 -14 346 228 534 389 121 103 297 291 371 394
35 49 84 131 109 182 39 80 46 104 50 171 4 65 1 84 -17 119 -48 94 -173 138
-321 112z"/>
<path d="M4965 8450 c-131 -28 -272 -106 -371 -204 -185 -185 -206 -400 -63
-644 66 -111 249 -276 400 -361 l57 -32 46 73 c66 103 197 365 240 481 131
351 104 590 -74 670 -50 23 -169 31 -235 17z"/>
<path d="M6915 8284 c-333 -84 -693 -375 -1050 -850 -97 -129 -190 -272 -182
-280 3 -3 66 6 140 20 660 128 1275 452 1422 749 76 155 52 277 -69 339 -33
18 -61 22 -141 24 -55 2 -109 0 -120 -2z"/>
<path d="M3854 7770 c-172 -45 -328 -158 -422 -304 -39 -61 -54 -113 -54 -182
1 -171 204 -293 554 -334 164 -19 649 -2 675 24 11 11 -29 234 -58 321 -49
146 -103 239 -194 331 -148 151 -305 196 -501 144z"/>
<path d="M7025 7454 c-11 -3 -56 -12 -100 -20 -149 -28 -397 -120 -600 -221
-183 -92 -605 -345 -605 -363 0 -11 128 -67 240 -104 448 -149 904 -117 1201
85 192 130 305 323 269 458 -15 56 -69 114 -133 141 -40 18 -75 24 -152 26
-55 2 -109 1 -120 -2z"/>
<path d="M5150 7206 c-262 -61 -506 -222 -641 -424 -108 -162 -116 -307 -23
-411 193 -215 698 -102 1002 224 113 121 184 285 168 388 -15 94 -72 160 -181
208 -61 28 -237 36 -325 15z"/>
<path d="M3313 6886 c-258 -49 -492 -206 -577 -386 -25 -52 -31 -78 -31 -132
0 -58 4 -72 30 -110 65 -91 207 -131 394 -109 289 34 657 170 1070 398 l174
96 -39 24 c-139 84 -352 169 -512 204 -126 27 -403 35 -509 15z"/>
<path d="M5860 6565 c-183 -18 -364 -45 -374 -55 -23 -23 42 -314 99 -436 143
-310 399 -448 691 -374 208 54 405 202 487 369 43 88 50 197 18 265 -92 190
-447 279 -921 231z"/>
<path d="M4257 6335 c-594 -81 -1142 -295 -1383 -539 -190 -193 -195 -395 -12
-476 313 -138 898 225 1419 882 50 62 95 121 100 131 12 20 13 20 -124 2z"/>
<path d="M5006 6158 c-183 -282 -303 -547 -337 -744 -17 -99 -8 -249 19 -300
54 -104 154 -150 311 -141 174 9 330 84 471 226 169 169 215 335 149 533 -60
181 -220 356 -453 496 -39 23 -74 42 -78 42 -5 0 -42 -51 -82 -112z"/>
<path d="M4575 6157 c-579 -342 -1005 -750 -1080 -1033 -32 -121 9 -220 112
-270 54 -27 66 -29 168 -28 98 0 119 4 194 32 372 140 649 549 701 1034 11
106 12 259 2 296 -7 22 -9 22 -97 -31z"/>
<path d="M5797 5568 c-5 -36 -1 -55 29 -115 63 -128 131 -351 168 -551 50
-267 64 -710 32 -1037 -51 -510 -190 -1099 -399 -1678 l-60 -167 30 -38 c41
-51 201 -259 281 -365 l67 -88 28 88 c164 517 253 871 321 1278 114 682 120
1361 16 1870 -47 229 -131 489 -225 690 l-42 91 -69 13 c-38 7 -89 21 -113 32
-24 10 -47 19 -51 19 -4 0 -10 -19 -13 -42z"/>
</g>
</svg>
