<svg width="631" height="951" viewBox="0 0 631 951" fill="none" xmlns="http://www.w3.org/2000/svg">
<path d="M454 0.983535C439.067 3.6502 423.2 11.2502 408.8 22.7169C382.133 43.9169 362.133 84.4502 356.667 128.184C354.933 141.117 355.467 181.517 357.2 183.25C359.067 185.117 403.333 152.85 428.4 131.384C444.533 117.65 468 92.5835 477.867 78.8502C482.533 72.3169 489.067 61.3835 492.4 54.5835C497.6 43.9169 498.533 40.7169 499.067 31.7835C499.6 23.1169 499.2 20.5835 496.8 15.9169C490.4 3.38354 473.733 -2.48313 454 0.983535Z" fill="white"/>
<path d="M301.333 27.6501C283.867 31.3834 265.067 41.7834 251.867 54.8501C227.2 79.5168 224.4 108.183 243.467 140.717C252.267 155.517 276.667 177.517 296.8 188.85L304.4 193.117L310.533 183.383C319.333 169.65 336.8 134.717 342.533 119.25C360 72.4501 356.4 40.5834 332.667 29.9168C326 26.8501 310.133 25.7834 301.333 27.6501Z" fill="white"/>
<path d="M561.333 49.7835C516.933 60.9835 468.933 99.7835 421.333 163.117C408.4 180.317 396 199.384 397.067 200.45C397.467 200.85 405.867 199.65 415.733 197.784C503.733 180.717 585.733 137.517 605.333 97.9168C615.467 77.2502 612.267 60.9835 596.133 52.7168C591.733 50.3168 588 49.7835 577.333 49.5168C570 49.2502 562.8 49.5168 561.333 49.7835Z" fill="white"/>
<path d="M153.2 118.317C130.267 124.317 109.467 139.383 96.9333 158.85C91.7333 166.983 89.7333 173.917 89.7333 183.117C89.8667 205.917 116.933 222.183 163.6 227.65C185.467 230.183 250.133 227.917 253.6 224.45C255.067 222.983 249.733 193.25 245.867 181.65C239.333 162.183 232.133 149.783 220 137.517C200.267 117.383 179.333 111.383 153.2 118.317Z" fill="white"/>
<path d="M576 160.45C574.533 160.85 568.533 162.05 562.667 163.117C542.8 166.85 509.733 179.117 482.667 192.583C458.267 204.85 402 238.583 402 240.983C402 242.45 419.067 249.917 434 254.85C493.733 274.717 554.533 270.45 594.133 243.517C619.733 226.183 634.8 200.45 630 182.45C628 174.983 620.8 167.25 612.267 163.65C606.933 161.25 602.267 160.45 592 160.183C584.667 159.917 577.467 160.05 576 160.45Z" fill="white"/>
<path d="M326 193.517C291.067 201.65 258.533 223.117 240.533 250.05C226.133 271.65 225.067 290.983 237.467 304.85C263.2 333.517 330.533 318.45 371.067 274.983C386.133 258.85 395.6 236.983 393.467 223.25C391.467 210.717 383.867 201.917 369.333 195.517C361.2 191.783 337.733 190.717 326 193.517Z" fill="white"/>
<path d="M81.0667 236.183C46.6667 242.717 15.4667 263.65 4.13333 287.65C0.8 294.583 0 298.05 0 305.25C0 312.983 0.533333 314.85 4 319.917C12.6667 332.05 31.6 337.383 56.5333 334.45C95.0667 329.917 144.133 311.783 199.2 281.383L222.4 268.583L217.2 265.383C198.667 254.183 170.267 242.85 148.933 238.183C132.133 234.583 95.2 233.517 81.0667 236.183Z" fill="white"/>
<path d="M420.667 278.984C396.267 281.384 372.133 284.984 370.8 286.317C367.733 289.384 376.4 328.184 384 344.45C403.067 385.784 437.2 404.184 476.133 394.317C503.867 387.117 530.133 367.384 541.067 345.117C546.8 333.384 547.733 318.85 543.467 309.784C531.2 284.45 483.867 272.584 420.667 278.984Z" fill="white"/>
<path d="M206.933 309.65C127.733 320.45 54.6667 348.983 22.5334 381.517C-2.79998 407.25 -3.46665 434.183 20.9334 444.983C62.6667 463.383 140.667 414.983 210.133 327.383C216.8 319.117 222.8 311.25 223.467 309.917C225.067 307.25 225.2 307.25 206.933 309.65Z" fill="white"/>
<path d="M306.8 333.25C282.4 370.85 266.4 406.184 261.867 432.45C259.6 445.65 260.8 465.65 264.4 472.45C271.6 486.317 284.933 492.45 305.867 491.25C329.067 490.05 349.867 480.05 368.667 461.117C391.2 438.583 397.333 416.45 388.533 390.05C380.533 365.917 359.2 342.584 328.133 323.917C322.933 320.85 318.267 318.317 317.733 318.317C317.067 318.317 312.133 325.117 306.8 333.25Z" fill="white"/>
<path d="M249.333 333.383C172.133 378.983 115.333 433.383 105.333 471.117C101.067 487.25 106.533 500.45 120.267 507.117C127.467 510.717 129.067 510.983 142.667 510.85C155.733 510.85 158.533 510.317 168.533 506.583C218.133 487.917 255.067 433.383 262 368.717C263.467 354.583 263.6 334.183 262.267 329.25C261.333 326.317 261.067 326.317 249.333 333.383Z" fill="white"/>
<path d="M412.267 411.917C411.6 416.717 412.133 419.25 416.133 427.25C424.533 444.317 433.6 474.05 438.533 500.717C445.2 536.317 447.067 595.383 442.8 638.983C436 706.983 417.467 785.517 389.6 862.717L381.6 884.983L385.6 890.05C391.067 896.85 412.4 924.583 423.067 938.717L432 950.45L435.733 938.717C457.6 869.783 469.467 822.583 478.533 768.317C493.733 677.383 494.533 586.85 480.667 518.983C474.4 488.45 463.2 453.783 450.667 426.983L445.067 414.85L435.867 413.117C430.8 412.183 424 410.317 420.8 408.85C417.6 407.517 414.533 406.317 414 406.317C413.467 406.317 412.667 408.85 412.267 411.917Z" fill="white"/>
</svg>
